<?xml version="1.0"?>
<svg xmlns="http://www.w3.org/2000/svg" height="512px" viewBox="0 0 512 512" width="512px"><g transform="matrix(0.895159 0 0 0.895159 26.8392 26.8392)"><g id="Outline"><path d="m493.657 402.343-128-128a8 8 0 0 0 -11.314 0l-13.172 13.171-32.8-4.686 30.54-30.541c7.994-7.994 10.921-19.771 8.242-33.163-2.444-12.218-9.392-24.546-19.561-34.709s-22.494-17.12-34.712-19.564c-13.388-2.678-25.169.249-33.163 8.243l-30.541 30.54-4.686-32.8 13.171-13.172a8 8 0 0 0 0-11.314l-128-128a8 8 0 0 0 -11.314 0l-80 80a8 8 0 0 0 0 11.314l128 128a8 8 0 0 0 11.314 0l13.172-13.171 32.8 4.686-34.416 34.417-.015.014c-6.33 6.331-9.457 15.092-9.183 25.029-14.768-2.225-27.825 1.481-36.865 10.522-9.291 9.29-12.965 22.815-10.344 38.082 2.044 11.915 7.807 23.824 16.433 34.206l-13.118 13.117a16.078 16.078 0 1 0 11.315 11.315l13.117-13.117c10.381 8.625 22.29 14.388 34.206 16.432a55.469 55.469 0 0 0 9.386.825c11.387 0 21.362-3.834 28.695-11.168 9.04-9.04 12.744-22.094 10.525-36.857.4.011.8.024 1.195.024 9.445 0 17.755-3.14 23.831-9.216l34.431-34.43 4.686 32.8-13.171 13.172a8 8 0 0 0 0 11.314l128 128a8 8 0 0 0 11.314 0l80-80a8 8 0 0 0 .002-11.315zm-120.971-18.343-28.686 28.686-20.686-20.686 28.686-28.686zm-9.372-32 28.686-28.686 20.686 20.686-28.686 28.686zm20.686 43.314 20.686 20.686-28.686 28.686-20.686-20.686zm11.314-11.314 28.686-28.686 20.686 20.686-28.686 28.686zm-35.314-92.687 20.686 20.687-28.686 28.686-20.686-20.686zm-88.973-106.906c5.516-5.518 14.089-4.794 18.71-3.867 9.154 1.831 18.577 7.224 26.537 15.189s13.355 17.38 15.186 26.534c.925 4.619 1.65 13.192-3.867 18.71l-70.612 70.611c-.1-.646-.21-1.294-.341-1.949-2.445-12.218-9.392-24.546-19.562-34.71s-22.5-17.12-34.713-19.565c-.655-.131-1.3-.237-1.95-.341zm-79.027-3.721-20.686-20.686 28.686-28.686 20.687 20.686zm-75.314-52.686-28.686 28.686-20.686-20.686 28.686-28.686zm-9.372-32 28.686-28.686 20.686 20.686-28.686 28.686zm20.686 43.314 20.686 20.686-28.686 28.686-20.686-20.686zm11.314-11.314 28.686-28.686 20.686 20.686-28.686 28.686zm-35.314-92.687 20.686 20.687-28.686 28.686-20.686-20.686zm-40 40 20.686 20.687-28.686 28.686-20.687-20.686zm88 145.373-20.686-20.686 28.686-28.686 20.686 20.686zm58.343-35.716 4.229 29.6-29.6-4.229zm-8.812 192.561c-5.512 5.513-14.054 7.606-24.062 5.888-8.749-1.5-17.6-5.707-25.543-12.031l21.731-21.732-11.314-11.314-21.732 21.731c-6.324-7.938-10.53-16.794-12.031-25.543-1.717-10 .375-18.55 5.889-24.063 4.256-4.256 10.318-6.473 17.465-6.473a39 39 0 0 1 6.6.585c11.019 1.891 22.214 8.058 31.522 17.366s15.476 20.5 17.367 31.523c1.714 10.005-.378 18.551-5.892 24.064zm16.963-42.149a84.027 84.027 0 0 0 -41.877-41.878c-1.551-7.845-.192-14.5 3.9-18.589 5.516-5.517 14.089-4.792 18.709-3.866 9.153 1.831 18.577 7.223 26.538 15.188s13.354 17.382 15.185 26.535c.925 4.62 1.651 13.193-3.867 18.709-4.09 4.094-10.742 5.453-18.588 3.902zm78.934-37.955 29.6 4.229-25.371 25.371zm22.572 33.887 20.686 20.686-28.686 28.686-20.687-20.686zm88 145.373-20.686-20.687 28.686-28.686 20.686 20.686zm40-40-20.686-20.687 28.686-28.686 20.687 20.686z" data-original="#000000" class="active-path" data-old_color="#000000" fill="#FFFFFF"/><path d="m296 224h16v16h-16z" data-original="#000000" class="active-path" data-old_color="#000000" fill="#FFFFFF"/><path d="m272 240h16v16h-16z" data-original="#000000" class="active-path" data-old_color="#000000" fill="#FFFFFF"/><path d="m72 392h-16a64.072 64.072 0 0 0 64 64v-16a48.053 48.053 0 0 1 -48-48z" data-original="#000000" class="active-path" data-old_color="#000000" fill="#FFFFFF"/><path d="m32 400h-16a96.108 96.108 0 0 0 96 96v-16a80.091 80.091 0 0 1 -80-80z" data-original="#000000" class="active-path" data-old_color="#000000" fill="#FFFFFF"/><path d="m280 112h16v-24h16v-16h-16v-24h-16v24h-16v16h16z" data-original="#000000" class="active-path" data-old_color="#000000" fill="#FFFFFF"/><path d="m448 280h16v-24h16v-16h-16v-24h-16v24h-16v16h16z" data-original="#000000" class="active-path" data-old_color="#000000" fill="#FFFFFF"/><path d="m344 80h16v16h-16z" data-original="#000000" class="active-path" data-old_color="#000000" fill="#FFFFFF"/><path d="m376 200h16v16h-16z" data-original="#000000" class="active-path" data-old_color="#000000" fill="#FFFFFF"/><path d="m464 88h16v16h-16z" data-original="#000000" class="active-path" data-old_color="#000000" fill="#FFFFFF"/><path d="m32 240v24h-16v16h16v24h16v-24h16v-16h-16v-24z" data-original="#000000" class="active-path" data-old_color="#000000" fill="#FFFFFF"/><path d="m232 448h16v16h-16z" data-original="#000000" class="active-path" data-old_color="#000000" fill="#FFFFFF"/></g></g> </svg>
