<?xml version="1.0"?>
<svg xmlns="http://www.w3.org/2000/svg" width="512px" height="512px" viewBox="0 0 128 128"><g transform="matrix(1.04996 0 0 1.04996 -3.19741 -3.19741)"><g><path d="M37.916,49h6a1.75,1.75,0,0,0,0-3.5h-6a1.75,1.75,0,0,0,0,3.5Z" data-original="#000000" class="active-path" data-old_color="#000000" fill="#FFFFFF"/><path d="M88.83,62.75h21.54a1.75,1.75,0,0,0,1.465-2.708l-8.99-13.75a1.752,1.752,0,0,0-1.465-.792H88.83a1.75,1.75,0,0,0-1.75,1.75V61A1.75,1.75,0,0,0,88.83,62.75ZM90.58,49h9.854l6.7,10.25H90.58Z" data-original="#000000" class="active-path" data-old_color="#000000" fill="#FFFFFF"/><path d="M121.5,80h-1.75V63.49a7.665,7.665,0,0,0-1.266-4.237l-10.609-16.24A7.722,7.722,0,0,0,101.39,39.5H82.83a1.75,1.75,0,0,0-1.75,1.75V80h-2.5V78.75A1.75,1.75,0,0,0,76.83,77H73.963A13.7,13.7,0,0,0,78.58,66.75V53.25a13.756,13.756,0,0,0-12.866-13.7,1.714,1.714,0,0,0-.382-.045,1.567,1.567,0,0,0-.168.017c-.112,0-.221-.017-.334-.017H35.69V36.975a1.746,1.746,0,0,0-.248-3.475h-12a1.746,1.746,0,0,0-.252,3.475V39.5H18.5A13.765,13.765,0,0,0,4.75,53.25v13.5A13.767,13.767,0,0,0,9.375,77H6.5a1.751,1.751,0,0,0-1.75,1.75v9A1.751,1.751,0,0,0,6.5,89.5h7.686a9.736,9.736,0,0,0,17.013,0h7.362a9.736,9.736,0,0,0,17.013,0H87.3a9.736,9.736,0,0,0,17.013,0H121.5a1.75,1.75,0,0,0,1.75-1.75v-6A1.75,1.75,0,0,0,121.5,80ZM84.58,43h16.81a4.233,4.233,0,0,1,3.555,1.927L115.56,61.174a4.2,4.2,0,0,1,.69,2.316V68.5H115a1.75,1.75,0,0,0,0,3.5h1.25v8H104.314A9.736,9.736,0,0,0,87.3,80H84.58Zm-21,19.306h-5.5V57.694h5.5Zm0-8.112h-5.5V49.583h5.5Zm-5.5,11.612h5.5v4.611h-5.5Zm5.5-19.723h-5.5V43h5.5Zm-5.5,27.834h5.5V77h-5.5Zm17-20.667v13.5a10.262,10.262,0,0,1-8,9.993V43.257A10.262,10.262,0,0,1,75.08,53.25ZM26.69,37h5.5v2.5h-5.5ZM8.25,66.75V53.25A10.261,10.261,0,0,1,18.5,43H54.583V77H52.959a9.677,9.677,0,0,0-11.783,0H28.584a9.677,9.677,0,0,0-11.611-.129A10.287,10.287,0,0,1,8.25,66.75ZM8.25,86V80.5h5.681a9.414,9.414,0,0,0-.9,5.5Zm14.442,5A6.266,6.266,0,1,1,28.5,87.048c-.012.028-.021.058-.032.087A6.258,6.258,0,0,1,22.692,91Zm9.661-5a9.445,9.445,0,0,0-.9-5.5h6.852a9.414,9.414,0,0,0-.9,5.5Zm14.714,5A6.257,6.257,0,0,1,41.3,87.143c-.012-.033-.022-.066-.036-.1a6.19,6.19,0,0,1-.443-2.3A6.25,6.25,0,1,1,47.067,91Zm8.762-10.5H75.08V86H56.728a9.445,9.445,0,0,0-.9-5.5ZM78.58,86V83.5h7.567a8.823,8.823,0,0,0,0,2.5Zm17.228,5a6.257,6.257,0,0,1-5.771-3.855c-.013-.033-.023-.068-.037-.1a6.174,6.174,0,0,1,0-4.588c.014-.033.024-.068.037-.1A6.249,6.249,0,1,1,95.808,91Zm23.942-5H105.468a8.726,8.726,0,0,0,0-2.5H119.75Z" data-original="#000000" class="active-path" data-old_color="#000000" fill="#FFFFFF"/><path d="M95.808,80a4.75,4.75,0,1,0,4.75,4.75A4.755,4.755,0,0,0,95.808,80Zm0,6a1.25,1.25,0,1,1,1.25-1.25A1.251,1.251,0,0,1,95.808,86Z" data-original="#000000" class="active-path" data-old_color="#000000" fill="#FFFFFF"/><path d="M22.692,80a4.75,4.75,0,1,0,4.75,4.75A4.756,4.756,0,0,0,22.692,80Zm0,6a1.25,1.25,0,1,1,1.25-1.25A1.252,1.252,0,0,1,22.692,86Z" data-original="#000000" class="active-path" data-old_color="#000000" fill="#FFFFFF"/><path d="M47.067,80a4.75,4.75,0,1,0,4.75,4.75A4.756,4.756,0,0,0,47.067,80Zm0,6a1.25,1.25,0,1,1,1.25-1.25A1.252,1.252,0,0,1,47.067,86Z" data-original="#000000" class="active-path" data-old_color="#000000" fill="#FFFFFF"/><path d="M21.5,70.135a7.759,7.759,0,0,0,7.75-7.75c0-5.161-5.831-11.306-6.5-11.99a1.8,1.8,0,0,0-2.51,0c-.664.684-6.5,6.829-6.5,11.99A7.759,7.759,0,0,0,21.5,70.135Zm0-15.894c1.794,2.149,4.25,5.645,4.25,8.144a4.25,4.25,0,1,1-8.5,0C17.25,59.886,19.706,56.39,21.5,54.241Z" data-original="#000000" class="active-path" data-old_color="#000000" fill="#FFFFFF"/></g></g> </svg>
