<?xml version="1.0"?>
<svg xmlns="http://www.w3.org/2000/svg" id="Capa_1" enable-background="new 0 0 512 512" height="512px" viewBox="0 0 512 512" width="512px" class=""><g transform="matrix(0.969717 0 0 0.969717 7.75245 7.75245)"><g><path d="m504.5 294.98c4.143 0 7.5-3.358 7.5-7.5v-27.38c0-1.445-.261-2.878-.745-4.226l-.007-.024c-.013-.036-.03-.07-.043-.106-.447-1.203-1.047-2.286-1.781-3.246l-59.837-78.139c-2.341-3.086-6.059-4.928-9.947-4.928h-61.309c-6.897 0-12.51 5.607-12.51 12.5v89.719h-13.718v-12.025c0-4.142-3.357-7.5-7.5-7.5s-7.5 3.358-7.5 7.5v12.025h-15.513v-61.178h15.514v14.152c0 4.142 3.357 7.5 7.5 7.5s7.5-3.358 7.5-7.5v-17.485c0-6.433-5.233-11.666-11.667-11.666h-22.181c-6.433 0-11.666 5.233-11.666 11.666v11.607l-12.875-3.45 6.411-23.926c5.979-22.329-6.423-45.806-28.233-53.448l-26.61-9.33c-3.911-1.372-8.189.687-9.559 4.596-1.371 3.909.687 8.188 4.596 9.559l26.612 9.331c14.45 5.062 22.667 20.617 18.705 35.411l-16.7 62.326c-3.969 14.793-18.858 24.161-33.905 21.324l-95.823-18.081-36.099-21.643 29.715-110.9 42.09-.694 32.225 11.297c3.909 1.371 8.188-.688 9.56-4.597 1.37-3.909-.688-8.188-4.597-9.559l-33.49-11.74c-.836-.293-1.696-.429-2.605-.421l-40.871.674c-.886-2.004-2.635-3.605-4.916-4.216-3.705-.99-7.499.973-8.893 4.444l-62.345 1.028c-5.563.074-10.459 3.884-11.905 9.269l-12.634 47.186c-6.223 4.528-10.28 11.862-10.28 20.129v4.912h-8.677c-4.143 0-7.5 3.358-7.5 7.5s3.357 7.5 7.5 7.5h8.677v12.636h-8.677c-4.143 0-7.5 3.358-7.5 7.5s3.357 7.5 7.5 7.5h8.677v12.637h-8.677c-4.143 0-7.5 3.358-7.5 7.5s3.357 7.5 7.5 7.5h8.677v13.15h-1.121c-5.795 0-10.51 4.715-10.51 10.51v69.784l-12.002 30.254c-1.527 3.85.355 8.209 4.206 9.737 3.849 1.528 8.209-.354 9.737-4.206l9.709-24.473 21.048 8.833c6.775 22.482 27.664 38.907 52.326 38.907 21.634 0 40.37-12.637 49.218-30.916h23.735c8.848 18.279 27.585 30.916 49.218 30.916 3.379 0 6.766-.312 10.064-.926 13.526-2.52 25.524-10.016 33.784-21.104 2.096-2.813 3.891-5.788 5.39-8.886h30.81l3.035 7.649c1.168 2.943 3.989 4.736 6.974 4.736.92 0 1.856-.17 2.764-.531 3.851-1.527 5.733-5.887 4.206-9.737l-.84-2.118h50.831c8.849 18.279 27.585 30.916 49.219 30.916s40.37-12.637 49.218-30.916h34.309c6.897 0 12.51-5.612 12.51-12.51v-45.09c0-4.142-3.357-7.5-7.5-7.5s-7.5 3.358-7.5 7.5v42.6h-27.097c.458-2.844.706-5.758.706-8.729 0-30.132-24.514-54.646-54.645-54.646-13.374 0-25.634 4.837-35.142 12.843v-130.116h57.586l9.867 12.886h-32.21c-5.24 0-9.504 4.264-9.504 9.504v49.58c0 5.24 4.264 9.503 9.504 9.503h80.933v21.576c0 4.142 3.357 7.5 7.5 7.5zm-197.91-60.704v37.375h-32.88c4.478-5.015 7.876-11.094 9.716-17.949l6.408-23.915zm-171.479 33.275 21.726 4.1h-56.35l-24.736-22.839c-1.157-1.069-1.821-2.586-1.821-4.161v-13.239l11.816 7.084c-.529 3.704 1.775 7.303 5.479 8.295.65.174 1.304.257 1.946.257 1.611 0 3.15-.531 4.415-1.454l35.058 21.019c.761.456 1.596.773 2.467.938zm-74.031-145.852 56.147-.926-27.497 102.622-15.8-9.473v-30.606c0-12.989-10.006-23.679-22.713-24.783zm-21.917 61.617c0-3.781 2.137-7.07 5.264-8.731l.025-.012c1.374-.725 2.936-1.14 4.595-1.14 5.45 0 9.884 4.434 9.884 9.884v61.334c0 5.748 2.422 11.281 6.645 15.181l12.8 11.819h-39.213zm3.785 171.548-13.232-5.554 12.934-32.602h17.355c-10.18 9.647-16.653 23.153-17.057 38.156zm54.608 41.132c-21.861 0-39.646-17.785-39.646-39.645 0-21.828 17.733-39.591 39.55-39.643h.192c21.816.052 39.549 17.815 39.549 39.643.001 21.861-17.784 39.645-39.645 39.645zm53.94-30.916c.458-2.844.706-5.758.706-8.729 0-15.597-6.579-29.678-17.094-39.643h47.069c-10.516 9.966-17.094 24.046-17.094 39.643 0 2.971.247 5.885.706 8.729zm75.548 30.244c-2.395.446-4.856.672-7.316.672-21.86 0-39.645-17.785-39.645-39.645 0-21.828 17.733-39.591 39.549-39.643h.192c21.816.052 39.549 17.815 39.549 39.643 0 4.757-.832 9.383-2.438 13.732-.033.093-.071.182-.1.277-1.29 3.414-3.06 6.653-5.289 9.645-5.997 8.052-14.698 13.492-24.502 15.319zm46.64-30.244c.457-2.861.689-5.777.689-8.729 0-15.597-6.579-29.678-17.094-39.643h17.355l19.191 48.372zm36.279 0-22.009-55.476c-1.902-4.797-6.465-7.896-11.624-7.896h-235.37c-5.163 0-9.727 3.1-11.63 7.895l-1.798 4.532v-27.484h338.289v48.003c-2.892 6.656-4.504 13.991-4.504 21.698 0 2.971.247 5.885.706 8.729h-52.06zm106-48.375c21.86 0 39.645 17.785 39.645 39.646s-17.785 39.645-39.645 39.645c-21.861 0-39.646-17.785-39.646-39.645s17.785-39.646 39.646-39.646zm5.597-104.388h38.201l29.549 38.588h-67.75z" data-original="#000000" class="" data-old_color="#000000" fill="#FFFFFF"/><path d="m415.963 380.082c13.085 0 23.73-10.645 23.73-23.73s-10.645-23.731-23.73-23.731c-13.086 0-23.731 10.645-23.731 23.731 0 13.084 10.645 23.73 23.731 23.73zm0-32.462c4.814 0 8.73 3.917 8.73 8.731s-3.916 8.73-8.73 8.73-8.731-3.917-8.731-8.73c0-4.814 3.917-8.731 8.731-8.731z" data-original="#000000" class="" data-old_color="#000000" fill="#FFFFFF"/><path d="m97.556 332.62c-13.086 0-23.731 10.645-23.731 23.731 0 13.085 10.645 23.73 23.731 23.73 13.085 0 23.73-10.645 23.73-23.73.001-13.085-10.645-23.731-23.73-23.731zm0 32.462c-4.814 0-8.731-3.917-8.731-8.73 0-4.814 3.917-8.731 8.731-8.731s8.73 3.917 8.73 8.731c.001 4.813-3.915 8.73-8.73 8.73z" data-original="#000000" class="" data-old_color="#000000" fill="#FFFFFF"/><path d="m219.728 332.62c-13.085 0-23.73 10.645-23.73 23.731 0 13.085 10.645 23.73 23.73 23.73s23.73-10.645 23.73-23.73-10.645-23.731-23.73-23.731zm0 32.462c-4.814 0-8.73-3.917-8.73-8.73 0-4.814 3.916-8.731 8.73-8.731s8.73 3.917 8.73 8.731c0 4.813-3.916 8.73-8.73 8.73z" data-original="#000000" class="" data-old_color="#000000" fill="#FFFFFF"/></g></g> </svg>
