<?xml version="1.0"?>
<svg xmlns="http://www.w3.org/2000/svg" id="Layer_3" enable-background="new 0 0 64 64" height="512px" viewBox="0 0 64 64" width="512px"><g transform="matrix(0.777822 0 0 0.777822 7.10971 7.10971)"><g><path d="m62 43.972v-18c0-1.654-1.346-3-3-3h-19.36c-.835-2.312-3.044-3.972-5.64-3.972s-4.805 1.66-5.64 3.972h-5.36c-1.654 0-3 1.346-3 3v2h-6.757c-1.068 0-2.072.416-2.829 1.172l-6.242 6.243c-.755.755-1.172 1.759-1.172 2.828v2.969c-1.161.414-2 1.514-2 2.816s.839 2.402 2 2.816v2.156c0 .005.003.009.003.014s-.003.009-.003.014v3c0 2.206 1.794 4 4 4h3c.552 0 1-.447 1-1v-1.028h1.829c-.523.89-.829 1.923-.829 3.028 0 3.309 2.691 6 6 6s6-2.691 6-6c0-1.105-.306-2.138-.829-3.028h10.658c-.523.89-.829 1.923-.829 3.028 0 3.309 2.691 6 6 6s6-2.691 6-6c0-1.105-.306-2.138-.829-3.028h2.658c-.523.89-.829 1.923-.829 3.028 0 3.309 2.691 6 6 6s6-2.691 6-6c0-1.105-.306-2.138-.829-3.028h.829c1.654 0 3-1.346 3-3v-1h1c.552 0 1-.447 1-1v-4c0-.553-.448-1-1-1zm-3-19c.551 0 1 .448 1 1v1h-20.224c.139-.51.224-1.036.224-1.575v-.397c0-.01-.001-.019-.001-.028zm-29 .028c0-2.206 1.794-4 4-4s4 1.794 4 4v.397c0 .839-.258 1.643-.745 2.325l-3.255 4.557-3.255-4.557c-.487-.682-.745-1.486-.745-2.325zm3.186 9.581c.188.263.491.419.814.419s.626-.156.814-.419l1.639-2.295c2.084.497 3.547 1.586 3.547 2.714 0 1.419-2.464 3-6 3s-6-1.581-6-3c0-1.128 1.463-2.217 3.547-2.714zm-2.874-4.024c-2.625.834-4.312 2.509-4.312 4.443 0 2.804 3.514 5 8 5s8-2.196 8-5c0-1.934-1.687-3.609-4.312-4.443l1.133-1.586h21.179v15h-38v-15h7.179zm-7.312-5.585h5.001c0 .009-.001.018-.001.028v.397c0 .539.085 1.065.224 1.574h-6.224v-1c0-.551.449-.999 1-.999zm-9.757 5h6.757v15 3h-4.807c.422-1.147 1.515-1.972 2.807-1.972.552 0 1-.447 1-1v-3h-.006c0-.01.006-.018.006-.028v-10c0-.553-.448-1-1-1h-6.586l.414-.414c.379-.378.881-.586 1.415-.586zm-4.243 21h-4v-.972h4zm-4-3v-.972h1c.552 0 1-.447 1-1v-3.028h10v1.129c-1.945.397-3.474 1.93-3.883 3.871zm.586-11.171 3.828-3.829h7.586v8h-11v.028h-1v-2.785c0-.534.208-1.036.586-1.414zm-1.586 6.199h1v2h-1c-.551 0-1-.448-1-1s.449-1 1-1zm3 11c-.749 0-1.394-.418-1.737-1.028h3.737v1.028zm11 7c-2.206 0-4-1.794-4-4s1.794-4 4-4 4 1.794 4 4-1.794 4-4 4zm21 0c-2.206 0-4-1.794-4-4s1.794-4 4-4 4 1.794 4 4-1.794 4-4 4zm13 0c-2.206 0-4-1.794-4-4s1.794-4 4-4 4 1.794 4 4-1.794 4-4 4zm7-10.028c0 .552-.449 1-1 1h-2.737c-.94-.613-2.06-.972-3.263-.972s-2.323.359-3.263.972h-6.474c-.94-.613-2.06-.972-3.263-.972s-2.323.359-3.263.972h-14.474c-.94-.613-2.06-.972-3.263-.972s-2.323.359-3.263.972h-3.737v-2h10 38zm2-3h-39v-2h39z" data-original="#000000" class="active-path" data-old_color="#000000" fill="#FFFFFF"/><circle cx="18" cy="57" r="2" data-original="#000000" class="active-path" data-old_color="#000000" fill="#FFFFFF"/><circle cx="39" cy="57" r="2" data-original="#000000" class="active-path" data-old_color="#000000" fill="#FFFFFF"/><circle cx="52" cy="57" r="2" data-original="#000000" class="active-path" data-old_color="#000000" fill="#FFFFFF"/><path d="m9 44h4v2h-4z" data-original="#000000" class="active-path" data-old_color="#000000" fill="#FFFFFF"/><path d="m46 39.972h12v2h-12z" data-original="#000000" class="active-path" data-old_color="#000000" fill="#FFFFFF"/><path d="m46 36.972h10v2h-10z" data-original="#000000" class="active-path" data-old_color="#000000" fill="#FFFFFF"/><path d="m46 33.972h8v2h-8z" data-original="#000000" class="active-path" data-old_color="#000000" fill="#FFFFFF"/><path d="m1 11c0 1.932 1.721 3.547 4 3.919v2.081h2v-2.081c2.279-.372 4-1.987 4-3.919 0-1.263-.737-2.416-1.938-3.16l.368-.613c.373-.623.57-1.333.57-2.058v-.169c0-2.206-1.794-4-4-4s-4 1.794-4 4v.169c0 .725.197 1.436.57 2.059l.368.612c-1.201.744-1.938 1.897-1.938 3.16zm3-6c0-1.103.897-2 2-2s2 .897 2 2v.169c0 .362-.099.719-.285 1.029l-1.715 2.859-1.714-2.858c-.187-.311-.286-.668-.286-1.03zm1.143 6.515c.18.3.506.485.857.485s.677-.185.857-.485l1.18-1.967c.601.377.963.903.963 1.452 0 1.084-1.374 2-3 2s-3-.916-3-2c0-.549.362-1.075.963-1.452z" data-original="#000000" class="active-path" data-old_color="#000000" fill="#FFFFFF"/><path d="m49 15c0 2.206 2.243 4 5 4s5-1.794 5-4c0-1.263-.737-2.416-1.938-3.16l.368-.614c.373-.622.57-1.332.57-2.057v-.169c0-2.206-1.794-4-4-4s-4 1.794-4 4v.169c0 .725.197 1.436.57 2.059l.368.613c-1.201.743-1.938 1.896-1.938 3.159zm3-6c0-1.103.897-2 2-2s2 .897 2 2v.169c0 .362-.099.719-.285 1.029l-1.715 2.859-1.714-2.857c-.187-.312-.286-.669-.286-1.031zm1.143 6.515c.18.3.506.485.857.485s.677-.185.857-.485l1.18-1.967c.601.377.963.903.963 1.452 0 1.084-1.374 2-3 2s-3-.916-3-2c0-.549.362-1.075.963-1.452z" data-original="#000000" class="active-path" data-old_color="#000000" fill="#FFFFFF"/><path d="m5 19h2v2h-2z" data-original="#000000" class="active-path" data-old_color="#000000" fill="#FFFFFF"/><path d="m9 19h2v2h-2z" data-original="#000000" class="active-path" data-old_color="#000000" fill="#FFFFFF"/><path d="m13 19h2v2h-2z" data-original="#000000" class="active-path" data-old_color="#000000" fill="#FFFFFF"/><path d="m17 19h2v2h-2z" data-original="#000000" class="active-path" data-old_color="#000000" fill="#FFFFFF"/><path d="m21 19h2v2h-2z" data-original="#000000" class="active-path" data-old_color="#000000" fill="#FFFFFF"/><path d="m34 28c1.654 0 3-1.346 3-3s-1.346-3-3-3-3 1.346-3 3 1.346 3 3 3zm0-4c.551 0 1 .448 1 1s-.449 1-1 1-1-.448-1-1 .449-1 1-1z" data-original="#000000" class="active-path" data-old_color="#000000" fill="#FFFFFF"/><path d="m21 15h2v2h-2z" data-original="#000000" class="active-path" data-old_color="#000000" fill="#FFFFFF"/><path d="m21 11h2v2h-2z" data-original="#000000" class="active-path" data-old_color="#000000" fill="#FFFFFF"/><path d="m25 11h2v2h-2z" data-original="#000000" class="active-path" data-old_color="#000000" fill="#FFFFFF"/><path d="m29 11h2v2h-2z" data-original="#000000" class="active-path" data-old_color="#000000" fill="#FFFFFF"/><path d="m33 11h2v2h-2z" data-original="#000000" class="active-path" data-old_color="#000000" fill="#FFFFFF"/><path d="m33 15h2v2h-2z" data-original="#000000" class="active-path" data-old_color="#000000" fill="#FFFFFF"/></g></g> </svg>
