<?xml version="1.0"?>
<svg xmlns="http://www.w3.org/2000/svg" id="Capa_1" enable-background="new 0 0 510.646 510.646" height="512px" viewBox="0 0 510.646 510.646" width="512px" class=""><g transform="matrix(0.868572 0 0 0.868572 33.5565 33.5565)"><g><g><path d="m495.53 283.323h-176c-8.284 0-15 6.716-15 15v176c0 8.284 6.716 15 15 15h176c8.284 0 15-6.716 15-15v-176c0-8.284-6.716-15-15-15zm-15 176h-146v-146h146z" data-original="#000000" class="active-path" data-old_color="#000000" fill="#FFFFFF"/><path d="m407.53 434.653c26.649 0 48.331-21.681 48.331-48.331s-21.681-48.331-48.331-48.331-48.331 21.681-48.331 48.331 21.681 48.331 48.331 48.331zm0-66.661c10.107 0 18.331 8.223 18.331 18.331s-8.223 18.331-18.331 18.331-18.331-8.223-18.331-18.331 8.223-18.331 18.331-18.331z" data-original="#000000" class="active-path" data-old_color="#000000" fill="#FFFFFF"/><path d="m366.072 226.658c-6.566 5.051-7.794 14.469-2.742 21.035 5.051 6.566 14.469 7.794 21.035 2.742 10.54-8.109 35.994-8.035 46.958.138 2.691 2.006 5.835 2.974 8.953 2.974 4.576 0 9.094-2.086 12.039-6.037 4.951-6.642 3.58-16.04-3.063-20.991-21.669-16.15-62.093-16.084-83.18.139z" data-original="#000000" class="active-path" data-old_color="#000000" fill="#FFFFFF"/><path d="m357.513 203.375c23.124-17.36 76.744-17.292 100.655.128 2.666 1.942 5.756 2.877 8.82 2.877 4.631 0 9.2-2.138 12.136-6.168 4.878-6.695 3.405-16.078-3.291-20.956-16.406-11.953-41.243-18.846-68.142-18.913-.131 0-.26 0-.391 0-26.975 0-51.669 6.932-67.799 19.041-6.625 4.974-7.963 14.376-2.99 21.001s14.376 7.964 21.002 2.99z" data-original="#000000" class="active-path" data-old_color="#000000" fill="#FFFFFF"/></g><g><path d="m232.591 0h-186.524c-25.338 0-45.951 20.614-45.951 45.952v418.742c0 25.338 20.614 45.952 45.952 45.952h186.524c25.338 0 45.952-20.614 45.952-45.952v-418.742c-.001-25.338-20.615-45.952-45.953-45.952zm-186.524 30h186.524c8.796 0 15.952 7.156 15.952 15.952v24.691h-218.427v-24.691c0-8.796 7.155-15.952 15.951-15.952zm202.476 347.884h-218.427v-277.241h218.427zm-15.952 102.762h-186.524c-8.796 0-15.952-7.156-15.952-15.952v-56.81h218.427v56.81c.001 8.796-7.155 15.952-15.951 15.952z" data-original="#000000" class="active-path" data-old_color="#000000" fill="#FFFFFF"/><path d="m139.33 426.541c-9.773 0-17.725 7.951-17.725 17.724s7.951 17.725 17.725 17.725c9.773 0 17.724-7.951 17.724-17.725 0-9.773-7.951-17.724-17.724-17.724z" data-original="#000000" class="active-path" data-old_color="#000000" fill="#FFFFFF"/><path d="m112.098 326.677c10.549 11.817 19.134 17.086 27.834 17.086 8.62 0 17.415-5.391 27.679-16.965 7.419-8.366 15.182-19.445 22.449-32.041 8.179-14.175 27.201-50.606 27.201-82.673 0-38.608-21.355-57.763-39.27-67.034-18.057-9.344-35.592-10.211-37.532-10.279l-.526-.009c-19.346 0-38.664 7.274-53 19.957-16.467 14.568-25.535 35.5-25.535 58.94 0 30.444 19.498 66.743 27.881 80.937 7.336 12.422 15.44 23.815 22.819 32.081zm27.497-161.912c1.605.101 13.188 1.021 24.608 6.931 15.516 8.029 23.058 21.241 23.058 40.39 0 15.91-7.694 39.479-20.582 63.045-10.807 19.761-21.267 32.301-26.742 37.102-5.547-4.83-16.24-17.484-27.461-37.463-13.199-23.501-21.078-46.345-21.078-61.108 0-35.671 28.692-48.748 48.197-48.897z" data-original="#000000" class="active-path" data-old_color="#000000" fill="#FFFFFF"/><path d="m139.329 236.104c11.562 0 20.934-9.372 20.934-20.933 0-11.563-9.372-20.935-20.934-20.935-11.561 0-20.932 9.372-20.932 20.935-.001 11.56 9.369 20.933 20.932 20.933z" data-original="#000000" class="active-path" data-old_color="#000000" fill="#FFFFFF"/></g></g></g> </svg>
