<?xml version="1.0"?>
<svg xmlns="http://www.w3.org/2000/svg" height="512px" viewBox="0 0 60 60" width="512px"><g transform="matrix(0.842943 0 0 0.842943 4.7117 4.7117)"><g id="009---Charging" transform="translate(0 -1)"><path id="Shape" d="m23.283 44.888-5-.715c-.5739979-.0820462-1.1553504.0890539-1.5933901.468957-.4380398.3799031-.6896457.931211-.6896099 1.511043v1.847c0 1.1045695.8954305 2 2 2h5c1.1045695 0 2-.8954305 2-2v-1.133c-.0038619-.9936243-.7338565-1.8350101-1.717-1.979zm-5.283 3.112v-1.847l5 .714v1.133z" data-original="#000000" class="active-path" data-old_color="#000000" fill="#FFFFFF"/><path id="Shape" d="m41.717 44.173-5 .715c-.9831435.1439899-1.7131381.9853757-1.717 1.979v1.133c0 1.1045695.8954305 2 2 2h5c1.1045695 0 2-.8954305 2-2v-1.847c.0000358-.579832-.2515701-1.1311399-.6896099-1.511043-.4380397-.3799031-1.0193922-.5510032-1.5933901-.468957zm.283 3.827h-5v-1.133l5-.714z" data-original="#000000" class="active-path" data-old_color="#000000" fill="#FFFFFF"/><path id="Shape" d="m32 44h-4c-.5522847 0-1 .4477153-1 1s.4477153 1 1 1h4c.5522847 0 1-.4477153 1-1s-.4477153-1-1-1z" data-original="#000000" class="active-path" data-old_color="#000000" fill="#FFFFFF"/><path id="Shape" d="m32 48h-4c-.5522847 0-1 .4477153-1 1s.4477153 1 1 1h4c.5522847 0 1-.4477153 1-1s-.4477153-1-1-1z" data-original="#000000" class="active-path" data-old_color="#000000" fill="#FFFFFF"/><path id="Shape" d="m25.707 30.293c-.3904999-.3903819-1.0235001-.3903819-1.414 0l-2 2c-.2859079.2859943-.3714219.7160366-.216678 1.0896546.1547439.3736179.5192821.6172591.923678.6173454.543 0 .565-.151 2.707-2.293.3903819-.3904999.3903819-1.0235001 0-1.414z" data-original="#000000" class="active-path" data-old_color="#000000" fill="#FFFFFF"/><path id="Shape" d="m30.293 30.293-6 6c-.3789722.3923789-.3735524 1.0160848.0121814 1.4018186s1.0094397.3911536 1.4018186.0121814l6-6c.3789722-.3923789.3735524-1.0160848-.0121814-1.4018186s-1.0094397-.3911536-1.4018186-.0121814z" data-original="#000000" class="active-path" data-old_color="#000000" fill="#FFFFFF"/><path id="Shape" d="m59 59h-13.184c.246-.69.184-.611.184-5.184 1.1943509-.4222546 1.9947486-1.5492146 2-2.816v-1h3c2.7600532-.0033061 4.9966939-2.2399468 5-5v-30c-.0033061-2.7600532-2.2399468-4.9966939-5-5h-2v-1c0-1.65685425-1.3431458-3-3-3h-3v-3c.0252804-.52702648-.1666484-1.04136679-.531-1.423-.6278066-.48591407-1.4268345-.69434044-2.212-.577h-25.257c-1.6568542 0-3 1.34314575-3 3v6h-3c-2.76005315.0033061-4.99669388 2.2399468-5 5v30c.00330612 2.7600532 2.23994685 4.9966939 5 5h3v1c.0052514 1.2667854.8056491 2.3937454 2 2.816 0 4.6-.06 4.5.184 5.184h-13.184c-.55228475 0-1 .4477153-1 1s.44771525 1 1 1h58c.5522847 0 1-.4477153 1-1s-.4477153-1-1-1zm-13-8c0 .5522847-.4477153 1-1 1h-30c-.5522847 0-1-.4477153-1-1v-6c0-1.6568542 1.3431458-3 3-3h26c1.6568542 0 3 1.3431458 3 3zm-25 3h18c0 4.34-.062 4.308.184 5h-18.368c.245-.687.184-.615.184-5zm24.694-14.288c-.38.39-.788.288-1.939.288l-.572-2h1.817c.4042387.003293.7667342.2496464.9186036.6242868.1518695.3746405.0632373.8038692-.2246036 1.0877132zm-4.02.288h-23.348l2.6-9.1c.4952926-1.7133747 2.0614813-2.8946353 3.845-2.9h10.458c1.7835187.0053647 3.3497074 1.1866253 3.845 2.9zm-25.429 0c-1.258 0-1.571.089-1.958-.306-.2775156-.2878831-.3568564-.7134098-.2017349-1.0819595.1551216-.3685497.5148801-.6092608.9147349-.6120405h1.817zm29.755-32c.5522847 0 1 .44771525 1 1v4c0 .5522847-.4477153 1-1 1h-3v-6zm-32-4c0-.55228475.4477153-1 1-1 27.446 0 25.77-.009 26 .018v14.982c0 .5522847-.4477153 1-1 1h-25c-.5522847 0-1-.4477153-1-1zm-5 44c-1.65685425 0-3-1.3431458-3-3v-30c0-1.6568542 1.34314575-3 3-3h3v6c0 1.6568542 1.3431458 3 3 3h25c1.6568542 0 3-1.3431458 3-3v-2h3c1.6568542 0 3-1.3431458 3-3v-1h2c1.6568542 0 3 1.3431458 3 3v30c0 1.6568542-1.3431458 3-3 3h-3v-3c-.0011503-1.2938037-.5061789-2.5362888-1.408-3.464 1.1273215-.7124332 1.6490265-2.083503 1.280465-3.3651337-.3685614-1.2816308-1.5389012-2.1661154-2.872465-2.1708663h-2.388l-1.612-5.648c-.74358-2.571399-3.0942591-4.3440824-5.771-4.352h-10.458c-2.6767409.0079176-5.02742 1.780601-5.771 4.352l-1.612 5.648h-2.388c-1.3319201.0070203-2.499732.8913811-2.8675375 2.1715293-.3678055 1.2801483.1524749 2.6495229 1.2775375 3.3624707-.9030344.9278885-1.4088342 2.1712232-1.41 3.466v3zm8 11c-.5522847 0-1-.4477153-1-1v-4h3v4c0 .5522847-.4477153 1-1 1zm25 0c-.5522847 0-1-.4477153-1-1v-4h3v4c0 .5522847-.4477153 1-1 1z" data-original="#000000" class="active-path" data-old_color="#000000" fill="#FFFFFF"/><path id="Shape" d="m24.219 16.627c.1657145.2072013.4069781.3400545.670678.3693128.2636998.0292583.5282179-.0474769.735322-.2133128l5-4c.2776407-.2224158.4162182-.5755851.3639204-.927463s-.2875962-.64948-.6179204-.781537l-3.406-1.363 3.66-2.928c.2845872-.22144177.4279157-.57894854.3751141-.93565332-.0528015-.35670478-.2935548-.65735745-.6300904-.78685692-.3365356-.12949946-.7167274-.0677875-.9950237.16151024l-5 4c-.2776407.22241575-.4162182.5755851-.3639204.927463s.2875962.64948.6179204.781537l3.406 1.362-3.66 2.929c-.4308438.3450199-.5006667.9738736-.156 1.405z" data-original="#000000" class="active-path" data-old_color="#000000" fill="#FFFFFF"/></g></g> </svg>
