<?xml version="1.0"?>
<svg xmlns="http://www.w3.org/2000/svg" id="Layer_1" enable-background="new 0 0 512 512" height="512px" viewBox="0 0 512 512" width="512px"><g transform="matrix(0.826169 0 0 0.826169 44.5008 44.5008)"><g><path d="m512 338.835c0-.013-.002-.026-.002-.039v-150.63c0-4.143-3.357-7.5-7.5-7.5-4.142 0-7.5 3.357-7.5 7.5v143.169h-18.131v-249.283c0-8.703-7.08-15.783-15.783-15.783h-33.918v-18.135h42.199c14.134 0 25.633 11.498 25.633 25.632v84.4c0 4.143 3.358 7.5 7.5 7.5 4.143 0 7.5-3.357 7.5-7.5v-84.4c0-22.404-18.227-40.632-40.633-40.632h-42.199v-9.634c0-12.958-10.542-23.5-23.5-23.5h-299.332c-12.958 0-23.5 10.542-23.5 23.5v9.634h-42.2c-22.405 0-40.633 18.228-40.633 40.632v265.05c0 .006-.001.013-.001.019 0 .007.001.013.001.019v33.115c0 22.405 18.228 40.633 40.633 40.633h34.699c4.143 0 7.5-3.357 7.5-7.5s-3.357-7.5-7.5-7.5h-34.699c-14.134 0-25.633-11.499-25.633-25.633v-25.634h75.333 331.332 75.332v25.634c0 14.134-11.499 25.633-25.633 25.633h-198.778c-.007 0-.013-.001-.019-.001-.007 0-.013.001-.019.001h-33.095c-.007 0-.013-.001-.019-.001-.007 0-.013.001-.019.001h-134.083c-4.143 0-7.5 3.357-7.5 7.5s3.357 7.5 7.5 7.5h80.044l-6.408 51.267h-38.935c-4.143 0-7.5 3.357-7.5 7.5v33.131c0 4.143 3.357 7.5 7.5 7.5h231.933c4.143 0 7.5-3.357 7.5-7.5v-33.132c0-4.143-3.357-7.5-7.5-7.5h-38.936l-6.408-51.267h144.743c22.405 0 40.633-18.228 40.633-40.633v-33.095c-.001-.012.001-.025.001-.038zm-48.916-257.566c.432 0 .783.352.783.783v249.283h-34.701v-250.066zm-365.25-57.769c0-4.687 3.813-8.5 8.5-8.5h299.332c4.687 0 8.5 3.813 8.5 8.5v26.2h-316.332zm-15 307.835h-34.701v-249.283c0-.432.352-.783.783-.783h33.918zm-67.833-257.569c0-14.134 11.499-25.632 25.633-25.632h42.2v18.135h-33.918c-8.703 0-15.783 7.08-15.783 15.783v249.283h-18.132zm82.833 257.569v-266.635h316.332v266.635zm149.1 81.267h18.134v18.132h-18.134zm117.533 84.398h-216.933v-18.132h216.933zm-46.553-33.132h-123.828l6.409-51.267h31.439v25.632c0 4.143 3.357 7.5 7.5 7.5h33.134c4.143 0 7.5-3.357 7.5-7.5v-25.632h31.438z" data-original="#000000" class="active-path" data-old_color="#000000" fill="#FFFFFF"/><path d="m123.467 39.851h8.283c4.143 0 7.5-3.357 7.5-7.5s-3.357-7.5-7.5-7.5h-8.283c-4.143 0-7.5 3.357-7.5 7.5s3.357 7.5 7.5 7.5z" data-original="#000000" class="active-path" data-old_color="#000000" fill="#FFFFFF"/><path d="m164.884 39.851h8.283c4.143 0 7.5-3.357 7.5-7.5s-3.357-7.5-7.5-7.5h-8.283c-4.143 0-7.5 3.357-7.5 7.5s3.357 7.5 7.5 7.5z" data-original="#000000" class="active-path" data-old_color="#000000" fill="#FFFFFF"/><path d="m206.3 39.851h8.283c4.143 0 7.5-3.357 7.5-7.5s-3.357-7.5-7.5-7.5h-8.283c-4.143 0-7.5 3.357-7.5 7.5s3.357 7.5 7.5 7.5z" data-original="#000000" class="active-path" data-old_color="#000000" fill="#FFFFFF"/><path d="m380.533 82.834h-249.066c-8.547 0-15.5 6.953-15.5 15.5v33.699c0 8.547 6.953 15.5 15.5 15.5h249.066c8.547 0 15.5-6.953 15.5-15.5v-33.699c0-8.547-6.953-15.5-15.5-15.5zm.5 49.199c0 .275-.225.5-.5.5h-249.066c-.275 0-.5-.225-.5-.5v-33.699c0-.275.225-.5.5-.5h249.066c.275 0 .5.225.5.5z" data-original="#000000" class="active-path" data-old_color="#000000" fill="#FFFFFF"/><path d="m263.022 203.666c-1.098-2.927-3.896-4.866-7.022-4.866s-5.925 1.939-7.023 4.866l-24.85 66.267c-1.454 3.879.511 8.202 4.389 9.656 3.879 1.453 8.201-.511 9.656-4.389l4.387-11.7h26.879l4.387 11.7c1.129 3.011 3.986 4.868 7.023 4.868.875 0 1.765-.154 2.633-.479 3.878-1.454 5.843-5.777 4.389-9.656zm-14.837 44.834 7.815-20.84 7.815 20.84z" data-original="#000000" class="active-path" data-old_color="#000000" fill="#FFFFFF"/><path d="m256 165.667c-40.675 0-73.767 33.092-73.767 73.767s33.092 73.766 73.767 73.766 73.767-33.092 73.767-73.767-33.092-73.766-73.767-73.766zm0 132.533c-32.404 0-58.767-26.362-58.767-58.767s26.362-58.767 58.767-58.767 58.767 26.362 58.767 58.767-26.363 58.767-58.767 58.767z" data-original="#000000" class="active-path" data-old_color="#000000" fill="#FFFFFF"/><path d="m371.967 182.233h-9.067v-9.066c0-4.143-3.357-7.5-7.5-7.5s-7.5 3.357-7.5 7.5v9.066h-9.066c-4.143 0-7.5 3.357-7.5 7.5s3.357 7.5 7.5 7.5h9.066v9.066c0 4.143 3.357 7.5 7.5 7.5s7.5-3.357 7.5-7.5v-9.066h9.067c4.143 0 7.5-3.357 7.5-7.5 0-4.142-3.358-7.5-7.5-7.5z" data-original="#000000" class="active-path" data-old_color="#000000" fill="#FFFFFF"/></g></g> </svg>
